<svg width="32" height="33" viewBox="0 0 32 33" fill="none" xmlns="http://www.w3.org/2000/svg">
<path d="M16 32.3789C24.8366 32.3789 32 25.2155 32 16.3789C32 7.54235 24.8366 0.378906 16 0.378906C7.16344 0.378906 0 7.54235 0 16.3789C0 25.2155 7.16344 32.3789 16 32.3789Z" fill="#FF655F"/>
<path d="M26.841 10.3677C26.1554 10.6717 25.4178 10.8773 24.6443 10.9692C25.4341 10.496 26.0402 9.74731 26.3262 8.85373C25.5872 9.29211 24.7684 9.61012 23.8976 9.78154C23.2 9.03855 22.206 8.57422 21.1054 8.57422C18.9936 8.57422 17.2809 10.2869 17.2809 12.3987C17.2809 12.6984 17.3149 12.9902 17.3805 13.2703C14.202 13.1109 11.3838 11.5884 9.49739 9.27385C9.16826 9.83858 8.97944 10.496 8.97944 11.1968C8.97944 12.5233 9.65512 13.6944 10.6808 14.3801C10.0541 14.3604 9.46402 14.1884 8.94864 13.9012C8.94836 13.9174 8.94836 13.9337 8.94836 13.9497C8.94836 15.8027 10.2672 17.3483 12.0164 17.6994C11.6958 17.7872 11.3573 17.8337 11.009 17.8337C10.762 17.8337 10.5227 17.8101 10.2894 17.7656C10.776 19.2846 12.1881 20.3904 13.862 20.4215C12.5529 21.4474 10.9041 22.0586 9.11178 22.0586C8.80375 22.0586 8.49857 22.0407 8.19995 22.005C9.89156 23.0905 11.9023 23.7234 14.062 23.7234C21.0965 23.7234 24.9435 17.8959 24.9435 12.8416C24.9435 12.6759 24.9398 12.5108 24.9324 12.347C25.6802 11.808 26.3285 11.1346 26.841 10.3677Z" fill="#F1F2F2"/>
</svg>
