<svg width="24" height="25" viewBox="0 0 24 25" fill="none" xmlns="http://www.w3.org/2000/svg">
<path d="M12 23.1289C6.07 23.1289 1.25 18.3089 1.25 12.3789C1.25 6.44891 6.07 1.62891 12 1.62891C17.93 1.62891 22.75 6.44891 22.75 12.3789C22.75 18.3089 17.93 23.1289 12 23.1289ZM12 3.12891C6.9 3.12891 2.75 7.27891 2.75 12.3789C2.75 17.4789 6.9 21.6289 12 21.6289C17.1 21.6289 21.25 17.4789 21.25 12.3789C21.25 7.27891 17.1 3.12891 12 3.12891Z" fill="#292D32"/>
<path d="M12 10.3612C12.19 10.3612 12.38 10.4312 12.53 10.5812L16.0601 14.1112C16.3501 14.4012 16.3501 14.8812 16.0601 15.1712C15.7701 15.4612 15.2901 15.4612 15.0001 15.1712L12 12.1712L9.00005 15.1712C8.71005 15.4612 8.23005 15.4612 7.94005 15.1712C7.65005 14.8812 7.65005 14.4012 7.94005 14.1112L11.47 10.5812C11.62 10.4312 11.81 10.3612 12 10.3612Z" fill="#292D32"/>
</svg>
